<svg xmlns="http://www.w3.org/2000/svg" viewBox="0 0 1152.41 161.24"><defs><style>.cls-1{fill:#12182b;}</style></defs><g id="Layer_2" data-name="Layer 2"><g id="Layer_1-2" data-name="Layer 1"><path class="cls-1" d="M81.91,161.24c-35.07,0-40.48-25.19-56.72-25.19-16.48,0-19.31,12.24-19.31,23.54H0V0H51.55V73.67c0,27.31-37,17-44.49,53.67C17.42,107.8,36.72,100,53,100c23.3,0,36.72,18.36,48.25,18.36,11.77,0,17.89-13.42,16.72-21l5.88.23C128.28,118.87,126.87,161.24,81.91,161.24Z"/><path class="cls-1" d="M246.21,159.59c0-11.77-4.48-16.71-10.83-18.13-24.25-4.94-36,19.07-59.32,19.07-40.72,0-61.67-27.3-55.78-64,3.06-18.83,4.23-32-5-40-6.12-5.41-13.88-3.53-21.42,3.77l-3.53-3.77c15.77-20.71,56.73-38.84,76.5-13.89,11.3,14.36,9,34.61,5.89,55.32-7.3,48.49,4.94,55.08,18.83,50.84,6.35-2.12,8.47-7.77,8.94-15.77V32.25h51.55V159.59Z"/><path class="cls-1" d="M405.09,32.25c0,31.07-24,50.37-42.61,58.61,4.95,8,9.42,15.53,21.42,34.6,8.71,13.65,20.48,22.83,28.72,13.89l4,4.23c-9.18,13.18-24.24,17.66-36.48,17.66-16.24,0-36.25-3.77-56.49-36-9.42-14.59-15.3-23.54-19.07-29.89-13.89,9.18,1.41,36.25,26.83,64.26H261.5c0-34.84,23.31-60.49,40-69.2-5.89-9.42-6.36-10.13-14.83-24.25-7.53-12.47-23.54-21.89-31.07-13.65l-4-4.24C260.8,34.84,275.86,30.6,288.1,30.6c16.48,0,38.61,3.77,59.08,35.78,4.95,7.76,8.24,13.18,11.07,17.89,8-9.42-1.18-27.78-22.84-52Z"/><path class="cls-1" d="M453.81,107.1c27.31,43.07,56.73,44.72,83.8,14.83,1.64,1.41,3.06,3.06,4.47,4.47-20,22.83-34.84,34.84-70.62,34.84-42.13,0-70.37-26.84-70.37-65.44,0-38.37,28.24-65.2,70.37-65.2,62.15,0,64,50.84-20.71,71.56A56.65,56.65,0,0,0,453.81,107.1Zm-16-64.26c-12,7.77-5.64,27.77,9.89,54.37,19.77-4,35.31-20,23.07-39.78C460.87,41.43,446.75,37.19,437.8,42.84Z"/><path class="cls-1" d="M670.59,161.24c-35.07,0-40.48-25.19-56.72-25.19-16.48,0-19.31,12.24-19.31,23.54h-5.88V0h51.55V73.67c0,27.31-37,17-44.49,53.67C606.1,107.8,625.4,100,641.64,100c23.3,0,36.72,18.36,48.25,18.36,11.77,0,17.89-13.42,16.72-21l5.88.23C717,118.87,715.55,161.24,670.59,161.24Z"/><path class="cls-1" d="M845,94.39c-3.06,18.83-4.24,32,4.94,40,6.12,5.42,13.89,3.77,21.42-3.76l3.53,3.76c-16.47,21.89-60.49,40-78.85,10.83-1.41,8.94-7.53,15.3-27.3,15.3-41.9,0-61-13.18-61-37.43,0-24.48,21.42-37.42,65.44-37.42a174.88,174.88,0,0,1,20,.94c5.65-42.6-1.65-53-16.48-48.72-15.54,4.47-4.71,45.66-35.31,45.66-20,0-29.66-12.24-25.42-51.31h6.12c0,8.71,2.59,15.3,10.36,15.3,14.83,0,29.66-16.95,56.72-16.95C829.71,30.6,850.89,57.67,845,94.39ZM792.52,93V92c-12.24-1.64-23.77-1.41-30.36,1.89-9.18,4.47-10.36,17.65-3.77,33.89,8.47,21.42,18.59,28.25,27.77,23.78,5.65-2.59,3.77-18.84,3.77-33.19A199,199,0,0,1,792.52,93Z"/><path class="cls-1" d="M871.13,32.25c0,19.06,11.77,20.48,25.42,17.18,13.89-3.3,26.6-18.83,44.72-18.83,40.72,0,61.67,27.07,55.79,63.79-2.83,18.83-4.24,32,4.94,40,6.12,5.42,13.89,3.77,21.42-3.76l3.53,3.76c-15.77,20.72-56.49,38.84-76.5,13.89-11.29-14.36-8.94-34.6-5.88-55.31,7.3-48.26-4.94-55.08-18.83-50.61-6.83,2.12-8.71,9.18-9,18.59v98.63H865.25V32.25Z"/><path class="cls-1" d="M1064.14,107.1c27.3,43.07,56.72,44.72,83.79,14.83,1.65,1.41,3.06,3.06,4.48,4.47-20,22.83-34.84,34.84-70.62,34.84-42.13,0-70.38-26.84-70.38-65.44,0-38.37,28.25-65.2,70.38-65.2,62.14,0,64,50.84-20.71,71.56A56.65,56.65,0,0,0,1064.14,107.1Zm-16-64.26c-12,7.77-5.65,27.77,9.89,54.37,19.77-4,35.3-20,23.06-39.78C1071.2,41.43,1057.08,37.19,1048.13,42.84Z"/></g></g></svg>